<svg width="141" height="38" viewBox="0 0 141 38" fill="none" xmlns="http://www.w3.org/2000/svg">
<path fill-rule="evenodd" clip-rule="evenodd" d="M26.2907 0.0564897C25.6639 -0.15059 25.0079 0.232133 24.8375 0.870079C24.6668 1.50934 25.049 2.16202 25.6753 2.37459C28.9558 3.48891 31.8426 5.54761 33.963 8.30317C36.3274 11.3755 37.6061 15.1414 37.6 19.0139C37.5938 22.8867 36.303 26.6484 33.9288 29.7133C31.7995 32.462 28.9061 34.5117 25.6219 35.6152C24.9949 35.8261 24.6107 36.4774 24.7795 37.1173C24.9476 37.7557 25.6026 38.1406 26.2301 37.9355C30.0272 36.6944 33.3742 34.3437 35.8281 31.176C38.5261 27.6932 39.9929 23.4184 40 19.0179C40.007 14.6171 38.5538 10.3377 35.8672 6.84636C33.4235 3.67093 30.0839 1.30952 26.2907 0.0564897ZM13.7999 37.9452C14.4276 38.1492 15.0819 37.7632 15.2492 37.1246C15.4166 36.4844 15.0316 35.8338 14.4041 35.624C11.1184 34.5253 8.22166 32.4803 6.08803 29.735C3.7089 26.6739 2.41241 22.9141 2.39989 19.0416C2.38758 15.1689 3.66033 11.401 6.0199 8.32494C8.13595 5.56608 11.0197 3.50276 14.2984 2.38339C14.9243 2.16971 15.3054 1.5166 15.1338 0.877553C14.9623 0.239827 14.3058 -0.142016 13.6793 0.0661621C9.88804 1.32535 6.55221 3.69181 4.11352 6.87121C1.43241 10.3667 -0.0139643 14.6483 0.00010163 19.0491C0.0139478 23.4499 1.48758 27.7223 4.19088 31.2008C6.64979 34.3646 10.0006 36.71 13.7999 37.9452ZM9.88035 8.89583C9.46078 8.47728 8.77858 8.47508 8.38913 8.92177C6.42165 11.1783 5.15308 13.966 4.75198 16.9451C4.30319 20.2786 4.96583 23.6668 6.6377 26.5884C8.30957 29.5097 10.8981 31.8021 14.0048 33.1129C16.7804 34.284 19.832 34.6133 22.781 34.0729C23.365 33.9659 23.7109 33.3756 23.5626 32.8008C23.4147 32.227 22.8305 31.886 22.2465 31.9863C19.7558 32.4143 17.1856 32.123 14.8441 31.1351C12.1724 30.0078 9.94628 28.0364 8.50847 25.524C7.07067 23.0115 6.50078 20.0977 6.88671 17.2307C7.22451 14.7209 8.27858 12.3687 9.91243 10.4494C10.2981 9.99608 10.3019 9.31593 9.88035 8.89583ZM31.6107 29.0498C31.2213 29.4965 30.5391 29.4941 30.1195 29.0758C29.698 28.6554 29.7017 27.9753 30.0874 27.522C31.7213 25.6027 32.7753 23.2505 33.1131 20.7407C33.4991 17.8739 32.9292 14.9598 31.4914 12.4474C30.0536 9.93519 27.8274 7.96354 25.1558 6.83625C22.8142 5.84834 20.2441 5.55706 17.7533 5.98507C17.1694 6.08531 16.5852 5.74436 16.4373 5.1706C16.2889 4.59575 16.6349 4.00573 17.2188 3.89867C20.1678 3.35811 23.2195 3.68741 25.9951 4.85845C29.1017 6.16929 31.6903 8.46167 33.3622 11.3832C35.034 14.3045 35.6967 17.6928 35.2479 21.0265C34.8468 24.0054 33.5782 26.793 31.6107 29.0498ZM9.98122 16.7319C9.37397 16.587 8.75793 16.9614 8.67375 17.5802C8.39419 19.638 8.68847 21.7407 9.53551 23.6537C10.5357 25.9126 12.2513 27.7821 14.4193 28.9755C16.5874 30.169 19.0881 30.6205 21.5382 30.2609C23.6125 29.9566 25.5534 29.085 27.1505 27.7535C27.6312 27.3527 27.6197 26.6301 27.1716 26.1933C26.7257 25.7585 26.0158 25.7732 25.5279 26.1604C24.2837 27.1474 22.7947 27.7948 21.2085 28.0276C19.2485 28.3154 17.2481 27.954 15.5135 26.9992C13.7793 26.0445 12.4067 24.549 11.6067 22.742C10.9603 21.2821 10.7162 19.684 10.8894 18.1109C10.9577 17.489 10.59 16.877 9.98122 16.7319ZM31.1063 20.6106C31.0222 21.2294 30.4061 21.604 29.7989 21.4589C29.1901 21.3138 28.8224 20.702 28.8907 20.0799C29.0615 18.5283 28.8265 16.9519 28.1993 15.5079C27.4208 13.7154 26.0802 12.2227 24.3788 11.2544C22.6775 10.286 20.707 9.89408 18.7632 10.1372C17.1942 10.3333 15.7107 10.935 14.4562 11.8734C13.9573 12.2465 13.2474 12.241 12.814 11.7936C12.3786 11.3443 12.3878 10.6217 12.8795 10.2348C14.4927 8.96596 16.4285 8.15413 18.4815 7.89737C20.9114 7.59356 23.3744 8.08357 25.5013 9.29395C27.6281 10.5045 29.3037 12.37 30.2769 14.6107C31.0991 16.5046 31.3822 18.5798 31.1063 20.6106Z" fill="lavender"/>
<path fill-rule="evenodd" clip-rule="evenodd" d="M54.2339 13.4358C54.2339 12.8204 53.7348 12.3213 53.1194 12.3213C52.5037 12.3213 52.0049 12.8204 52.0049 13.4358V21.7316C52.0049 22.7172 52.0049 23.0455 51.8108 23.4901C51.5201 24.1278 50.8222 24.4757 50.2022 24.4757C49.8144 24.4757 49.4266 24.3401 49.1166 24.1085C49.0378 24.0507 48.9627 23.9866 48.8923 23.9171C48.4623 23.4938 47.8748 23.086 47.2886 23.2283C46.6991 23.3712 46.3366 23.9859 46.6419 24.5099C46.9925 25.1117 47.4886 25.6294 48.1087 25.9827C48.7288 26.3691 49.4655 26.5237 50.2022 26.5237C51.8304 26.5237 52.9546 25.8667 53.7106 24.5913C54.2339 23.6254 54.2339 23.0455 54.2339 21.7316V13.4358Z" fill="lavender"/>
<path fill-rule="evenodd" clip-rule="evenodd" d="M69.0068 12.3213C69.6169 12.3213 70.1117 12.8161 70.1117 13.4262V21.0939C70.1117 22.35 69.6854 23.5672 68.8905 24.5528C67.863 25.8667 66.2348 26.5237 64.5291 26.5237C62.8427 26.5237 61.1952 25.8474 60.1677 24.5528C59.3925 23.6061 58.9272 22.2922 58.9272 21.0939V13.4358C58.9272 12.8294 59.4161 12.3362 60.0225 12.3309C60.6362 12.3256 61.137 12.8217 61.137 13.4358V20.8234C61.137 21.7316 61.2919 22.4467 61.8348 23.2004C62.4745 24.0118 63.5016 24.4757 64.5291 24.4757C65.5566 24.4757 66.5644 24.0118 67.2041 23.1807C67.7663 22.4467 67.9019 21.7509 67.9019 20.8234V13.4262C67.9019 12.8161 68.3967 12.3213 69.0068 12.3213Z" fill="lavender"/>
<path fill-rule="evenodd" clip-rule="evenodd" d="M84.3401 16.1434C85.0054 15.963 85.3782 15.2392 85.0164 14.6524C84.5013 13.8167 83.8198 13.1424 83.0046 12.6955C82.1131 12.1931 81.0664 12.0193 80.097 12C79.1666 12 78.1976 12.0964 77.2283 12.5603C76.0071 13.1205 75.0767 14.3959 75.0767 15.8257C75.0767 16.7535 75.4256 17.7584 76.2009 18.4346C76.8987 19.053 77.8291 19.4199 78.8373 19.71L81.4153 20.4636C82.0357 20.6374 82.5009 20.8693 82.8691 21.2169C83.218 21.5263 83.3924 21.9513 83.3924 22.3959C83.3924 22.8787 83.218 23.42 82.6946 23.8065C82.1324 24.2315 81.1438 24.4442 80.3297 24.4442C79.2637 24.4442 78.1006 24.077 77.4802 23.1881C77.3161 22.9917 77.1798 22.7608 77.0668 22.5056C76.804 21.9111 76.1882 21.4977 75.5605 21.6678C74.978 21.8257 74.6158 22.4228 74.8282 22.9881C75.0378 23.546 75.3219 24.0979 75.7164 24.5987C76.8213 25.9704 78.4106 26.4921 80.2522 26.4921C81.6672 26.4921 82.9465 26.2991 83.974 25.584C85.0207 24.8885 85.6992 23.6517 85.6992 22.4537C85.6992 21.3718 85.2533 20.3862 84.4584 19.6325C83.8188 19.0334 83.0628 18.6469 81.9194 18.3186L79.4574 17.6035C78.7403 17.3912 78.0425 17.1207 77.7324 16.7921C77.4998 16.5408 77.3639 16.2318 77.3639 15.8839C77.3639 15.3429 77.6743 14.7823 78.2362 14.4733C78.721 14.1835 79.38 14.0483 80.0778 14.0483C80.7563 14.0483 81.4153 14.2799 81.9194 14.5893C82.3407 14.8391 82.6484 15.1488 82.9013 15.523C83.2243 16.0002 83.7842 16.2943 84.3401 16.1434Z" fill="lavender"/>
<path fill-rule="evenodd" clip-rule="evenodd" d="M101.558 19.2314H97.7637V25.4237C97.7637 26.0288 97.2732 26.519 96.6685 26.519C96.0633 26.519 95.5732 26.0288 95.5732 25.4237V19.2314H91.582C90.9417 19.2314 90.4226 18.7123 90.4226 18.072C90.4226 17.4316 90.9417 16.9126 91.582 16.9126H101.558C102.199 16.9126 102.718 17.4316 102.718 18.072C102.718 18.7123 102.199 19.2314 101.558 19.2314Z" fill="lavender"/>
<path fill-rule="evenodd" clip-rule="evenodd" d="M91.582 12.3213C90.9417 12.3213 90.4226 12.8403 90.4226 13.4807C90.4226 14.121 90.9417 14.6401 91.582 14.6401H101.558C102.199 14.6401 102.718 14.121 102.718 13.4807C102.718 12.8403 102.199 12.3213 101.558 12.3213H91.582Z" fill="lavender"/>
<path fill-rule="evenodd" clip-rule="evenodd" d="M107.364 13.4393C107.364 12.822 107.854 12.3213 108.459 12.3213C109.064 12.3213 109.554 12.822 109.554 13.4393V25.4056C109.554 26.0233 109.064 26.5237 108.459 26.5237C107.854 26.5237 107.364 26.0233 107.364 25.4056V13.4393Z" fill="lavender"/>
<path fill-rule="evenodd" clip-rule="evenodd" d="M125.992 21.7925C125.404 21.6236 124.804 21.9706 124.502 22.5016C124.42 22.6455 124.331 22.7844 124.233 22.9176C123.458 23.9221 122.198 24.4442 120.899 24.4246C119.6 24.4442 118.341 23.9221 117.604 22.9176C116.809 21.9127 116.577 20.56 116.577 19.2461C116.577 17.9322 116.809 16.5601 117.604 15.5749C118.341 14.57 119.6 14.0483 120.899 14.0483C122.198 14.0483 123.458 14.57 124.233 15.5749C124.38 15.7619 124.507 15.9663 124.615 16.1836C124.874 16.701 125.407 17.0649 125.977 16.9668C126.638 16.8532 127.06 16.1826 126.777 15.5749C126.562 15.1126 126.295 14.66 125.959 14.2413C124.757 12.7537 122.896 12 120.899 12C118.922 12 117.061 12.734 115.859 14.2413C114.716 15.6327 114.27 17.3719 114.25 19.2461C114.25 21.0624 114.696 22.8016 115.859 24.2315C117.023 25.6999 118.883 26.4921 120.899 26.4921C122.838 26.4921 124.718 25.7581 125.959 24.2315C126.232 23.8879 126.463 23.5287 126.655 23.1562C126.94 22.6016 126.591 21.9646 125.992 21.7925Z" fill="lavender"/>
<path fill-rule="evenodd" clip-rule="evenodd" d="M131.559 13.4807C131.559 12.8403 132.078 12.3213 132.719 12.3213H139.372C140.012 12.3213 140.531 12.8403 140.531 13.4807C140.531 14.121 140.012 14.6401 139.372 14.6401H132.719C132.078 14.6401 131.559 14.121 131.559 13.4807Z" fill="lavender"/>
<path fill-rule="evenodd" clip-rule="evenodd" d="M131.559 25.3718C131.559 24.7315 132.078 24.2124 132.719 24.2124H139.372C140.012 24.2124 140.531 24.7315 140.531 25.3718C140.531 26.0121 140.012 26.5312 139.372 26.5312H132.719C132.078 26.5312 131.559 26.0121 131.559 25.3718Z" fill="lavender"/>
<path fill-rule="evenodd" clip-rule="evenodd" d="M131.559 19.4035C131.559 18.7632 132.078 18.2441 132.719 18.2441H139.372C140.012 18.2441 140.531 18.7632 140.531 19.4035C140.531 20.0439 140.012 20.5629 139.372 20.5629H132.719C132.078 20.5629 131.559 20.0439 131.559 19.4035Z" fill="lavender"/>
</svg>
